<?xml version="1.0" encoding="UTF-8"?>
<svg xmlns="http://www.w3.org/2000/svg" viewBox="0 0 1200 630" width="1200" height="630">
  <defs>
    <linearGradient id="bg" x1="0" y1="0" x2="1" y2="1">
      <stop offset="0%" stop-color="#FBF8F3"/>
      <stop offset="100%" stop-color="#F3ECF8"/>
    </linearGradient>
    <linearGradient id="petal" x1="0" y1="0" x2="1" y2="1">
      <stop offset="0%" stop-color="#C9B6E4"/>
      <stop offset="100%" stop-color="#9B7FBF"/>
    </linearGradient>
    <linearGradient id="card" x1="0" y1="0" x2="1" y2="1">
      <stop offset="0%" stop-color="#FFFFFF"/>
      <stop offset="100%" stop-color="#FBF8F3"/>
    </linearGradient>
    <filter id="soft" x="-20%" y="-20%" width="140%" height="140%">
      <feGaussianBlur stdDeviation="14"/>
    </filter>
  </defs>

  <!-- Background -->
  <rect width="1200" height="630" fill="url(#bg)"/>

  <!-- Decorative blobs -->
  <circle cx="100" cy="80" r="120" fill="#EFE3F7" filter="url(#soft)" opacity="0.7"/>
  <circle cx="1140" cy="560" r="160" fill="#FBE8EE" filter="url(#soft)" opacity="0.6"/>
  <circle cx="1040" cy="120" r="80" fill="#FAF1E5" filter="url(#soft)" opacity="0.7"/>

  <!-- Logo + brand -->
  <g transform="translate(72 64)">
    <circle cx="28" cy="28" r="26" fill="#F3ECF8"/>
    <g transform="translate(28 28)">
      <ellipse cx="0" cy="-11" rx="5.5" ry="10" fill="url(#petal)"/>
      <ellipse cx="0" cy="-11" rx="5.5" ry="10" fill="url(#petal)" transform="rotate(72)"/>
      <ellipse cx="0" cy="-11" rx="5.5" ry="10" fill="url(#petal)" transform="rotate(144)"/>
      <ellipse cx="0" cy="-11" rx="5.5" ry="10" fill="url(#petal)" transform="rotate(216)"/>
      <ellipse cx="0" cy="-11" rx="5.5" ry="10" fill="url(#petal)" transform="rotate(288)"/>
      <circle r="4" fill="#FBF8F3"/>
    </g>
    <text x="72" y="36" font-family="Inter, system-ui, sans-serif" font-size="24" font-weight="700" fill="#2E2640">
      Fearless <tspan fill="#9B7FBF">Creations</tspan>
    </text>
  </g>

  <!-- Eyebrow chip -->
  <g transform="translate(72 160)">
    <rect x="0" y="0" width="430" height="40" rx="20" fill="#F3ECF8"/>
    <text x="20" y="26" font-family="Inter, system-ui, sans-serif" font-size="14" font-weight="700"
          letter-spacing="2.5" fill="#9B7FBF">FOR ALGERIAN SECONDARY SCHOOL TEACHERS</text>
  </g>

  <!-- Headline -->
  <text x="72" y="270" font-family="Fraunces, Georgia, serif" font-size="68" font-weight="700" fill="#2E2640">
    Professional, ready-to-teach
  </text>
  <text x="72" y="346" font-family="Fraunces, Georgia, serif" font-size="68" font-weight="700" fill="#6E5793">
    English lesson plans.
  </text>

  <!-- Subheading -->
  <text x="72" y="402" font-family="Inter, system-ui, sans-serif" font-size="22" fill="#5C5374">
    Inspector-ready plans for 1AS, 2AS, 3AS &amp; BAC
  </text>

  <!-- Method pills -->
  <g font-family="Inter, system-ui, sans-serif" font-size="15" font-weight="600" fill="#2E2640">
    <g transform="translate(72 440)">
      <rect width="190" height="44" rx="22" fill="#FFFFFF" stroke="#ECE3F2"/>
      <circle cx="20" cy="22" r="4" fill="#9B7FBF"/>
      <text x="36" y="28">Competency-Based</text>
    </g>
    <g transform="translate(280 440)">
      <rect width="180" height="44" rx="22" fill="#FFFFFF" stroke="#ECE3F2"/>
      <circle cx="20" cy="22" r="4" fill="#9B7FBF"/>
      <text x="36" y="28">Bloom&#8217;s Taxonomy</text>
    </g>
    <g transform="translate(478 440)">
      <rect width="190" height="44" rx="22" fill="#FFFFFF" stroke="#ECE3F2"/>
      <circle cx="20" cy="22" r="4" fill="#9B7FBF"/>
      <text x="36" y="28">SMART Objectives</text>
    </g>
  </g>

  <!-- URL footer -->
  <text x="72" y="568" font-family="Inter, system-ui, sans-serif" font-size="18" font-weight="600" fill="#9B7FBF">
    creativekidsdigit.github.io
  </text>

  <!-- Lesson plan card mock -->
  <g transform="translate(760 130) rotate(-3)">
    <rect x="0" y="0" width="360" height="440" rx="16" fill="url(#card)" stroke="#ECE3F2" stroke-width="2"/>
    <rect x="0" y="0" width="360" height="68" rx="16" fill="#9B7FBF"/>
    <rect x="0" y="52" width="360" height="16" fill="#9B7FBF"/>
    <rect x="24" y="22" width="180" height="12" rx="4" fill="#FBF8F3"/>
    <rect x="24" y="42" width="120" height="8" rx="4" fill="#E8D9F0"/>
    <rect x="290" y="20" width="56" height="28" rx="14" fill="#FBF8F3" opacity="0.25"/>
    <text x="318" y="38" text-anchor="middle" font-family="Inter, system-ui, sans-serif" font-size="13" font-weight="700" fill="#FBF8F3">3AS</text>

    <rect x="24" y="96" width="100" height="11" rx="3" fill="#9B7FBF"/>
    <rect x="24" y="116" width="312" height="6" rx="3" fill="#DCC9EC"/>
    <rect x="24" y="128" width="280" height="6" rx="3" fill="#DCC9EC"/>

    <rect x="24" y="160" width="100" height="11" rx="3" fill="#9B7FBF"/>
    <rect x="24" y="180" width="60" height="6" rx="3" fill="#DCC9EC"/>
    <rect x="92" y="180" width="60" height="6" rx="3" fill="#DCC9EC"/>
    <rect x="160" y="180" width="60" height="6" rx="3" fill="#DCC9EC"/>

    <rect x="24" y="210" width="312" height="160" rx="10" fill="#F3ECF8"/>
    <rect x="40" y="226" width="48" height="11" rx="3" fill="#9B7FBF"/>
    <rect x="104" y="226" width="48" height="11" rx="3" fill="#9B7FBF"/>
    <rect x="168" y="226" width="72" height="11" rx="3" fill="#9B7FBF"/>
    <rect x="256" y="226" width="76" height="11" rx="3" fill="#9B7FBF"/>
    <line x1="40" y1="248" x2="320" y2="248" stroke="#DCC9EC"/>

    <rect x="40" y="262" width="40" height="6" rx="2" fill="#5C5374"/>
    <rect x="104" y="262" width="22" height="6" rx="2" fill="#9B7FBF"/>
    <rect x="168" y="262" width="60" height="5" rx="2" fill="#C9B6E4"/>
    <rect x="168" y="272" width="48" height="5" rx="2" fill="#C9B6E4"/>
    <rect x="256" y="262" width="60" height="5" rx="2" fill="#C9B6E4"/>

    <rect x="40" y="292" width="40" height="6" rx="2" fill="#5C5374"/>
    <rect x="104" y="292" width="22" height="6" rx="2" fill="#9B7FBF"/>
    <rect x="168" y="292" width="60" height="5" rx="2" fill="#C9B6E4"/>
    <rect x="168" y="302" width="42" height="5" rx="2" fill="#C9B6E4"/>
    <rect x="256" y="292" width="60" height="5" rx="2" fill="#C9B6E4"/>

    <rect x="40" y="322" width="40" height="6" rx="2" fill="#5C5374"/>
    <rect x="104" y="322" width="22" height="6" rx="2" fill="#9B7FBF"/>
    <rect x="168" y="322" width="60" height="5" rx="2" fill="#C9B6E4"/>
    <rect x="168" y="332" width="50" height="5" rx="2" fill="#C9B6E4"/>
    <rect x="256" y="322" width="60" height="5" rx="2" fill="#C9B6E4"/>

    <rect x="24" y="396" width="120" height="22" rx="11" fill="#9B7FBF"/>
  </g>

  <!-- "APC ready" stamp -->
  <g transform="translate(1066 152) rotate(8)">
    <rect x="-58" y="-16" width="116" height="32" rx="6" fill="#9B7FBF"/>
    <text x="0" y="6" text-anchor="middle" font-family="Inter, system-ui, sans-serif"
          font-size="13" font-weight="700" letter-spacing="2" fill="#FBF8F3">APC READY</text>
  </g>
</svg>
